<svg width="22" height="23" viewBox="0 0 22 23" fill="none" xmlns="http://www.w3.org/2000/svg">
<path d="M20.8999 10.4H12.1V1.59993C12.1 0.992864 11.6072 0.5 10.9999 0.5C10.3928 0.5 9.89997 0.992864 9.89997 1.59993V10.4H1.09993C0.492864 10.4 0 10.8928 0 11.4999C0 12.1072 0.492864 12.6 1.09993 12.6H9.89997V21.3999C9.89997 22.0071 10.3928 22.5 10.9999 22.5C11.6072 22.5 12.1 22.0071 12.1 21.3999V12.6H20.8999C21.5071 12.6 22 12.1072 22 11.4999C22 10.8928 21.5071 10.4 20.8999 10.4Z" fill="white"/>
</svg>
