<svg width="208" height="339" viewBox="0 0 208 339" fill="none" xmlns="http://www.w3.org/2000/svg">
<path d="M54.7725 134.367H49.1328V104.036H50.4863L52.7217 106.682C53.2275 106.203 53.7812 105.752 54.3828 105.328C54.9844 104.904 55.6064 104.542 56.249 104.241C56.9053 103.927 57.582 103.681 58.2793 103.503C58.9766 103.325 59.6807 103.236 60.3916 103.236C61.9365 103.236 63.3857 103.517 64.7393 104.077C66.1064 104.624 67.2959 105.403 68.3076 106.415C69.333 107.427 70.1396 108.65 70.7275 110.086C71.3154 111.508 71.6094 113.087 71.6094 114.823C71.6094 116.628 71.3154 118.255 70.7275 119.704C70.1396 121.14 69.333 122.363 68.3076 123.375C67.2959 124.373 66.1064 125.139 64.7393 125.672C63.3857 126.205 61.9365 126.472 60.3916 126.472C59.8994 126.472 59.4072 126.417 58.915 126.308C58.4365 126.198 57.958 126.055 57.4795 125.877C57.0146 125.686 56.5498 125.474 56.085 125.241C55.6338 125.009 55.1963 124.77 54.7725 124.523V134.367ZM65.9902 114.823C65.9902 113.894 65.8398 113.06 65.5391 112.321C65.252 111.583 64.8555 110.961 64.3496 110.455C63.8438 109.936 63.249 109.539 62.5654 109.266C61.8818 108.992 61.1572 108.855 60.3916 108.855C59.626 108.855 58.9014 108.992 58.2178 109.266C57.5479 109.539 56.96 109.936 56.4541 110.455C55.9482 110.961 55.5449 111.583 55.2441 112.321C54.957 113.06 54.8135 113.894 54.8135 114.823C54.8135 115.712 54.957 116.525 55.2441 117.264C55.5449 118.002 55.9482 118.631 56.4541 119.15C56.96 119.67 57.5479 120.073 58.2178 120.36C58.9014 120.647 59.626 120.791 60.3916 120.791C61.1572 120.791 61.8818 120.647 62.5654 120.36C63.249 120.073 63.8438 119.67 64.3496 119.15C64.8555 118.631 65.252 118.002 65.5391 117.264C65.8398 116.525 65.9902 115.712 65.9902 114.823Z" fill="white" fill-opacity="0.2"/>
<path d="M23.3584 29.8232C23.3584 31.4639 23.0645 32.9951 22.4766 34.417C21.8887 35.8252 21.0889 37.0488 20.0771 38.0879C19.0654 39.1133 17.876 39.9268 16.5088 40.5283C15.1553 41.1162 13.6992 41.4102 12.1406 41.4102C10.5957 41.4102 9.13965 41.1162 7.77246 40.5283C6.41895 39.9268 5.22949 39.1133 4.2041 38.0879C3.19238 37.0488 2.39258 35.8252 1.80469 34.417C1.2168 32.9951 0.922852 31.4639 0.922852 29.8232C0.922852 28.1553 1.2168 26.6104 1.80469 25.1885C2.39258 23.7666 3.19238 22.543 4.2041 21.5176C5.22949 20.4785 6.41895 19.665 7.77246 19.0771C9.13965 18.4893 10.5957 18.1953 12.1406 18.1953C13.6992 18.1953 15.1553 18.4756 16.5088 19.0361C17.876 19.583 19.0654 20.3691 20.0771 21.3945C21.0889 22.4062 21.8887 23.6299 22.4766 25.0654C23.0645 26.4873 23.3584 28.0732 23.3584 29.8232ZM17.7188 29.8232C17.7188 28.9209 17.5684 28.1074 17.2676 27.3828C16.9805 26.6445 16.584 26.0156 16.0781 25.4961C15.5723 24.9629 14.9775 24.5596 14.2939 24.2861C13.624 23.999 12.9062 23.8555 12.1406 23.8555C11.375 23.8555 10.6504 23.999 9.9668 24.2861C9.29688 24.5596 8.70898 24.9629 8.20312 25.4961C7.71094 26.0156 7.32129 26.6445 7.03418 27.3828C6.74707 28.1074 6.60352 28.9209 6.60352 29.8232C6.60352 30.6709 6.74707 31.457 7.03418 32.1816C7.32129 32.9062 7.71094 33.5352 8.20312 34.0684C8.70898 34.6016 9.29688 35.0254 9.9668 35.3398C10.6504 35.6406 11.375 35.791 12.1406 35.791C12.9062 35.791 13.624 35.6475 14.2939 35.3604C14.9775 35.0732 15.5723 34.6699 16.0781 34.1504C16.584 33.6309 16.9805 33.002 17.2676 32.2637C17.5684 31.5254 17.7188 30.7119 17.7188 29.8232Z" fill="white" fill-opacity="0.2"/>
<path opacity="0.2" d="M205.833 328.548C205.833 332.771 202.13 336.433 197.259 336.433C192.387 336.433 188.685 332.771 188.685 328.548C188.685 324.324 192.387 320.662 197.259 320.662C202.13 320.662 205.833 324.324 205.833 328.548Z" stroke="white" stroke-width="4.28702"/>
<g opacity="0.2">
<path d="M126.593 206.015L148.086 199.423L143.888 220.221L126.593 206.015Z" stroke="white" stroke-width="3.06216"/>
<path d="M137.576 208.07L159.069 201.479L154.871 222.276L137.576 208.07Z" stroke="white" stroke-width="3.06216"/>
<path d="M126.593 214.236L148.086 207.645L143.888 228.442L126.593 214.236Z" stroke="white" stroke-width="3.06216"/>
</g>
</svg>
