<svg width="1101" height="530" viewBox="0 0 1101 530" fill="none" xmlns="http://www.w3.org/2000/svg">
<path d="M428.772 212.367H423.133V182.036H424.486L426.722 184.682C427.228 184.203 427.781 183.752 428.383 183.328C428.984 182.904 429.606 182.542 430.249 182.241C430.905 181.927 431.582 181.681 432.279 181.503C432.977 181.325 433.681 181.236 434.392 181.236C435.937 181.236 437.386 181.517 438.739 182.077C440.106 182.624 441.296 183.403 442.308 184.415C443.333 185.427 444.14 186.65 444.728 188.086C445.315 189.508 445.609 191.087 445.609 192.823C445.609 194.628 445.315 196.255 444.728 197.704C444.14 199.14 443.333 200.363 442.308 201.375C441.296 202.373 440.106 203.139 438.739 203.672C437.386 204.205 435.937 204.472 434.392 204.472C433.899 204.472 433.407 204.417 432.915 204.308C432.437 204.198 431.958 204.055 431.479 203.877C431.015 203.686 430.55 203.474 430.085 203.241C429.634 203.009 429.196 202.77 428.772 202.523V212.367ZM439.99 192.823C439.99 191.894 439.84 191.06 439.539 190.321C439.252 189.583 438.855 188.961 438.35 188.455C437.844 187.936 437.249 187.539 436.565 187.266C435.882 186.992 435.157 186.855 434.392 186.855C433.626 186.855 432.901 186.992 432.218 187.266C431.548 187.539 430.96 187.936 430.454 188.455C429.948 188.961 429.545 189.583 429.244 190.321C428.957 191.06 428.813 191.894 428.813 192.823C428.813 193.712 428.957 194.525 429.244 195.264C429.545 196.002 429.948 196.631 430.454 197.15C430.96 197.67 431.548 198.073 432.218 198.36C432.901 198.647 433.626 198.791 434.392 198.791C435.157 198.791 435.882 198.647 436.565 198.36C437.249 198.073 437.844 197.67 438.35 197.15C438.855 196.631 439.252 196.002 439.539 195.264C439.84 194.525 439.99 193.712 439.99 192.823Z" fill="white" fill-opacity="0.2"/>
<path d="M308.358 107.823C308.358 109.464 308.064 110.995 307.477 112.417C306.889 113.825 306.089 115.049 305.077 116.088C304.065 117.113 302.876 117.927 301.509 118.528C300.155 119.116 298.699 119.41 297.141 119.41C295.596 119.41 294.14 119.116 292.772 118.528C291.419 117.927 290.229 117.113 289.204 116.088C288.192 115.049 287.393 113.825 286.805 112.417C286.217 110.995 285.923 109.464 285.923 107.823C285.923 106.155 286.217 104.61 286.805 103.188C287.393 101.767 288.192 100.543 289.204 99.5176C290.229 98.4785 291.419 97.665 292.772 97.0771C294.14 96.4893 295.596 96.1953 297.141 96.1953C298.699 96.1953 300.155 96.4756 301.509 97.0361C302.876 97.583 304.065 98.3691 305.077 99.3945C306.089 100.406 306.889 101.63 307.477 103.065C308.064 104.487 308.358 106.073 308.358 107.823ZM302.719 107.823C302.719 106.921 302.568 106.107 302.268 105.383C301.98 104.645 301.584 104.016 301.078 103.496C300.572 102.963 299.978 102.56 299.294 102.286C298.624 101.999 297.906 101.855 297.141 101.855C296.375 101.855 295.65 101.999 294.967 102.286C294.297 102.56 293.709 102.963 293.203 103.496C292.711 104.016 292.321 104.645 292.034 105.383C291.747 106.107 291.604 106.921 291.604 107.823C291.604 108.671 291.747 109.457 292.034 110.182C292.321 110.906 292.711 111.535 293.203 112.068C293.709 112.602 294.297 113.025 294.967 113.34C295.65 113.641 296.375 113.791 297.141 113.791C297.906 113.791 298.624 113.647 299.294 113.36C299.978 113.073 300.572 112.67 301.078 112.15C301.584 111.631 301.98 111.002 302.268 110.264C302.568 109.525 302.719 108.712 302.719 107.823Z" fill="white" fill-opacity="0.2"/>
<path d="M490.772 399H485.133V368.3H490.772V387.659L499.119 377.077H505.559L498.278 386.224L505.559 399H499.119L494.669 391.022L490.772 396.19V399Z" fill="white" fill-opacity="0.2"/>
<path d="M363.91 501H358.045V480C358.045 479.59 357.963 479.207 357.799 478.852C357.648 478.496 357.437 478.188 357.163 477.929C356.903 477.655 356.596 477.443 356.24 477.293C355.885 477.143 355.502 477.067 355.092 477.067C354.682 477.067 354.299 477.143 353.943 477.293C353.588 477.443 353.273 477.655 353 477.929C352.74 478.188 352.535 478.496 352.385 478.852C352.234 479.207 352.159 479.59 352.159 480V501H346.273V480C346.273 479.59 346.198 479.207 346.048 478.852C345.897 478.496 345.686 478.188 345.412 477.929C345.152 477.655 344.845 477.443 344.489 477.293C344.134 477.143 343.751 477.067 343.341 477.067C342.931 477.067 342.548 477.143 342.192 477.293C341.837 477.443 341.522 477.655 341.249 477.929C340.989 478.188 340.784 478.496 340.634 478.852C340.483 479.207 340.408 479.59 340.408 480V501H334.522V480C334.522 478.783 334.748 477.642 335.199 476.575C335.664 475.495 336.293 474.559 337.086 473.766C337.893 472.959 338.829 472.33 339.896 471.879C340.976 471.414 342.124 471.182 343.341 471.182C344.435 471.182 345.487 471.38 346.499 471.776C347.511 472.159 348.42 472.72 349.227 473.458C350.033 472.72 350.936 472.159 351.934 471.776C352.945 471.38 353.998 471.182 355.092 471.182C356.309 471.182 357.45 471.414 358.517 471.879C359.597 472.33 360.533 472.959 361.326 473.766C362.133 474.559 362.762 475.495 363.213 476.575C363.678 477.642 363.91 478.783 363.91 480V501Z" fill="white" fill-opacity="0.2"/>
<path d="M663.041 473.296C663.041 474.649 662.863 475.955 662.508 477.213C662.166 478.457 661.674 479.626 661.031 480.72C660.389 481.8 659.623 482.791 658.734 483.693C657.846 484.582 656.854 485.348 655.761 485.99C654.667 486.633 653.491 487.132 652.233 487.487C650.989 487.829 649.69 488 648.337 488H639.478V458.592H648.337C649.69 458.592 650.989 458.77 652.233 459.125C653.491 459.467 654.667 459.959 655.761 460.602C656.854 461.244 657.846 462.017 658.734 462.919C659.623 463.808 660.389 464.799 661.031 465.893C661.674 466.973 662.166 468.142 662.508 469.399C662.863 470.644 663.041 471.942 663.041 473.296ZM657.155 473.296C657.155 472.079 656.923 470.938 656.458 469.871C656.007 468.805 655.378 467.875 654.571 467.082C653.778 466.275 652.842 465.64 651.762 465.175C650.695 464.71 649.554 464.478 648.337 464.478H645.404V482.114H648.337C649.554 482.114 650.695 481.889 651.762 481.438C652.842 480.973 653.778 480.344 654.571 479.551C655.378 478.744 656.007 477.808 656.458 476.741C656.923 475.661 657.155 474.513 657.155 473.296Z" fill="white" fill-opacity="0.2"/>
<path d="M849.907 47.1816C849.907 48.3984 849.674 49.54 849.209 50.6064C848.745 51.6729 848.109 52.6094 847.302 53.416C846.509 54.209 845.58 54.8379 844.513 55.3027C843.447 55.7676 842.305 56 841.088 56H826.384V26.5918H841.088C842.305 26.5918 843.447 26.8242 844.513 27.2891C845.58 27.7539 846.509 28.3896 847.302 29.1963C848.109 29.9893 848.745 30.9189 849.209 31.9854C849.674 33.0518 849.907 34.1934 849.907 35.4102C849.907 35.957 849.832 36.5176 849.681 37.0918C849.531 37.666 849.319 38.2197 849.045 38.7529C848.772 39.2861 848.444 39.7715 848.061 40.209C847.678 40.6465 847.254 41.0088 846.79 41.2959C847.268 41.5557 847.699 41.9111 848.082 42.3623C848.464 42.7998 848.792 43.2852 849.066 43.8184C849.339 44.3516 849.544 44.9121 849.681 45.5C849.832 46.0742 849.907 46.6348 849.907 47.1816ZM832.27 50.1143H841.088C841.499 50.1143 841.881 50.0391 842.237 49.8887C842.592 49.7383 842.9 49.5332 843.16 49.2734C843.433 49 843.645 48.6855 843.795 48.3301C843.946 47.9746 844.021 47.5918 844.021 47.1816C844.021 46.7715 843.946 46.3887 843.795 46.0332C843.645 45.6777 843.433 45.3701 843.16 45.1104C842.9 44.8369 842.592 44.625 842.237 44.4746C841.881 44.3242 841.499 44.249 841.088 44.249H832.27V50.1143ZM832.27 38.3633H841.088C841.499 38.3633 841.881 38.2881 842.237 38.1377C842.592 37.9873 842.9 37.7822 843.16 37.5225C843.433 37.249 843.645 36.9346 843.795 36.5791C843.946 36.21 844.021 35.8203 844.021 35.4102C844.021 35 843.946 34.6172 843.795 34.2617C843.645 33.9062 843.433 33.5986 843.16 33.3389C842.9 33.0654 842.592 32.8535 842.237 32.7031C841.881 32.5527 841.499 32.4775 841.088 32.4775H832.27V38.3633Z" fill="white" fill-opacity="0.2"/>
<path d="M346.275 63H333.361L323.119 45.8184L312.84 63H300L316.328 36.3926L300 9.78516H312.84L323.119 26.9668L333.361 9.78516H346.275L329.947 36.3926L346.275 63Z" fill="white" fill-opacity="0.1"/>
<path d="M41.8594 254.264C41.8594 256.861 41.4017 259.199 40.4863 261.277C39.571 263.355 38.3464 265.112 36.8125 266.547C35.2786 267.982 33.4974 269.083 31.4688 269.85C29.4648 270.617 27.362 271 25.1602 271H3.71094V260.35H25.1602C25.8776 260.35 26.5951 260.238 27.3125 260.016C28.0547 259.793 28.7103 259.434 29.2793 258.939C29.873 258.445 30.3431 257.814 30.6895 257.047C31.0605 256.28 31.2461 255.352 31.2461 254.264C31.2461 253.274 31.0605 252.408 30.6895 251.666C30.3431 250.899 29.873 250.268 29.2793 249.773C28.7103 249.254 28.0547 248.87 27.3125 248.623C26.5951 248.351 25.8776 248.215 25.1602 248.215H3.71094L6.82812 217.785H39.6699V228.436H16.4023L15.4375 237.564H25.1602C27.362 237.564 29.4648 237.948 31.4688 238.715C33.4974 239.482 35.2786 240.595 36.8125 242.055C38.3464 243.49 39.571 245.246 40.4863 247.324C41.4017 249.378 41.8594 251.691 41.8594 254.264Z" fill="white" fill-opacity="0.1"/>
<path d="M862.473 285H856.874V268.614H854.147V263.036H856.874V261.99C856.874 260.637 857.127 259.365 857.633 258.176C858.153 256.986 858.857 255.954 859.745 255.079C860.648 254.19 861.694 253.493 862.883 252.987C864.073 252.468 865.344 252.208 866.698 252.208H870.902V257.786H866.698C866.096 257.786 865.535 257.896 865.016 258.114C864.51 258.319 864.066 258.613 863.683 258.996C863.314 259.365 863.02 259.81 862.801 260.329C862.582 260.835 862.473 261.389 862.473 261.99V263.036H869.343V268.614H862.473V285Z" fill="white" fill-opacity="0.2"/>
<path d="M59.3333 6.5918C59.3333 7.91797 59.0325 9.1416 58.4309 10.2627C57.8293 11.3838 57.0022 12.3545 55.9495 13.1748C54.9104 13.9814 53.6936 14.6104 52.2991 15.0615C50.9045 15.5264 49.4143 15.7588 47.8284 15.7588C46.2424 15.7588 44.7522 15.5264 43.3577 15.0615C41.9631 14.6104 40.7395 13.9814 39.6868 13.1748C38.6477 12.3545 37.8274 11.3838 37.2258 10.2627C36.6243 9.1416 36.3235 7.91797 36.3235 6.5918C36.3235 5.82617 36.426 5.08105 36.6311 4.35645C36.8362 3.61816 37.1301 2.92773 37.5129 2.28516C37.9094 1.64258 38.3811 1.05469 38.928 0.521484C39.4749 -0.0253906 40.0901 -0.490234 40.7737 -0.873047C40.3499 -1.24219 39.967 -1.66602 39.6252 -2.14453C39.2971 -2.62305 39.01 -3.12891 38.7639 -3.66211C38.5315 -4.19531 38.3538 -4.74219 38.2307 -5.30273C38.1077 -5.87695 38.0461 -6.44434 38.0461 -7.00488C38.0461 -8.15332 38.2991 -9.22656 38.8049 -10.2246C39.3245 -11.2363 40.0286 -12.1182 40.9172 -12.8701C41.8059 -13.6357 42.845 -14.2373 44.0344 -14.6748C45.2239 -15.1123 46.4885 -15.3311 47.8284 -15.3311C49.1819 -15.3311 50.4534 -15.1123 51.6428 -14.6748C52.8323 -14.2373 53.8713 -13.6357 54.76 -12.8701C55.6624 -12.1182 56.3665 -11.2363 56.8723 -10.2246C57.3918 -9.22656 57.6516 -8.15332 57.6516 -7.00488C57.6516 -6.44434 57.5833 -5.87695 57.4465 -5.30273C57.3235 -4.74219 57.1458 -4.18848 56.9133 -3.6416C56.6809 -3.1084 56.3938 -2.60254 56.052 -2.12402C55.7239 -1.64551 55.3479 -1.21484 54.9241 -0.832031C55.594 -0.449219 56.2024 0.00878906 56.7493 0.541992C57.2961 1.0752 57.761 1.66309 58.1438 2.30566C58.5266 2.94824 58.8206 3.63184 59.0256 4.35645C59.2307 5.08105 59.3333 5.82617 59.3333 6.5918ZM51.8889 -6.36914C51.8889 -6.84766 51.7795 -7.29199 51.5608 -7.70215C51.3557 -8.12598 51.0686 -8.49512 50.6995 -8.80957C50.344 -9.12402 49.9202 -9.37012 49.428 -9.54785C48.9358 -9.72559 48.4163 -9.81445 47.8694 -9.81445C47.3088 -9.81445 46.7825 -9.72559 46.2903 -9.54785C45.7981 -9.37012 45.3674 -9.12402 44.9983 -8.80957C44.6428 -8.49512 44.3557 -8.12598 44.137 -7.70215C43.9319 -7.29199 43.8293 -6.84766 43.8293 -6.36914C43.8293 -5.89062 43.9319 -5.44629 44.137 -5.03613C44.3557 -4.62598 44.6428 -4.27051 44.9983 -3.96973C45.3674 -3.66895 45.7981 -3.42969 46.2903 -3.25195C46.7825 -3.07422 47.3088 -2.98535 47.8694 -2.98535C48.4163 -2.98535 48.9358 -3.07422 49.428 -3.25195C49.9202 -3.42969 50.344 -3.66895 50.6995 -3.96973C51.0686 -4.27051 51.3557 -4.62598 51.5608 -5.03613C51.7795 -5.44629 51.8889 -5.89062 51.8889 -6.36914ZM53.4885 6.42773C53.4885 5.77148 53.3381 5.16309 53.0374 4.60254C52.7502 4.02832 52.3469 3.5293 51.8274 3.10547C51.3215 2.68164 50.72 2.34668 50.0227 2.10059C49.3391 1.85449 48.6077 1.73145 47.8284 1.73145C47.0491 1.73145 46.3176 1.85449 45.634 2.10059C44.9504 2.34668 44.3489 2.68164 43.8293 3.10547C43.3235 3.5293 42.9202 4.02832 42.6194 4.60254C42.3323 5.16309 42.1887 5.77148 42.1887 6.42773C42.1887 7.08398 42.3323 7.68555 42.6194 8.23242C42.9202 8.7793 43.3235 9.25098 43.8293 9.64746C44.3489 10.0439 44.9504 10.3584 45.634 10.5908C46.3176 10.8096 47.0491 10.9189 47.8284 10.9189C48.6077 10.9189 49.3391 10.8096 50.0227 10.5908C50.72 10.3584 51.3215 10.0439 51.8274 9.64746C52.3469 9.25098 52.7502 8.7793 53.0374 8.23242C53.3381 7.68555 53.4885 7.08398 53.4885 6.42773Z" fill="white" fill-opacity="0.2"/>
<path d="M93.5645 514.296C93.5645 511.028 93.0176 508.602 91.9238 507.016C90.8438 505.43 89.333 504.637 87.3916 504.637C85.4639 504.637 83.9668 505.423 82.9004 506.995C81.834 508.567 81.3008 511.001 81.3008 514.296C81.3008 517.563 81.834 519.99 82.9004 521.576C83.9668 523.162 85.4639 523.955 87.3916 523.955C88.3623 523.955 89.2305 523.764 89.9961 523.381C90.7617 522.984 91.4043 522.39 91.9238 521.597C92.457 520.804 92.8604 519.806 93.1338 518.603C93.4209 517.386 93.5645 515.95 93.5645 514.296ZM99.1631 514.296C99.1631 517.085 98.8555 519.443 98.2402 521.371C97.625 523.299 96.7842 524.857 95.7178 526.047C94.6514 527.236 93.4004 528.098 91.9648 528.631C90.543 529.15 89.0186 529.41 87.3916 529.41C85.7646 529.41 84.2334 529.144 82.7979 528.61C81.376 528.063 80.1318 527.195 79.0654 526.006C78.0127 524.803 77.1787 523.244 76.5635 521.33C75.9482 519.402 75.6406 517.058 75.6406 514.296C75.6406 511.507 75.9482 509.155 76.5635 507.241C77.1787 505.313 78.0127 503.755 79.0654 502.565C80.1318 501.376 81.376 500.515 82.7979 499.981C84.2334 499.448 85.7646 499.182 87.3916 499.182C89.0186 499.182 90.543 499.455 91.9648 500.002C93.4004 500.535 94.6514 501.403 95.7178 502.606C96.7842 503.81 97.625 505.368 98.2402 507.282C98.8555 509.196 99.1631 511.534 99.1631 514.296Z" fill="white" fill-opacity="0.2"/>
<path opacity="0.2" d="M1017.5 297.103C1017.5 303.999 1011.45 309.979 1003.5 309.979C995.545 309.979 989.5 303.999 989.5 297.103C989.5 290.207 995.545 284.227 1003.5 284.227C1011.45 284.227 1017.5 290.207 1017.5 297.103Z" stroke="white" stroke-width="7"/>
<g opacity="0.2">
<path d="M888.111 97.0253L923.206 86.2628L916.351 120.221L888.111 97.0253Z" stroke="white" stroke-width="5"/>
<path d="M906.044 100.381L941.139 89.619L934.284 123.578L906.044 100.381Z" stroke="white" stroke-width="5"/>
<path d="M888.111 110.45L923.206 99.6871L916.351 133.646L888.111 110.45Z" stroke="white" stroke-width="5"/>
</g>
</svg>
