<svg width="189" height="170" viewBox="0 0 189 170" fill="none" xmlns="http://www.w3.org/2000/svg">
<g opacity="0.5" clip-path="url(#clip0_2519_384)">
<path d="M38.6623 146.441C38.6623 142.71 35.6777 139.726 31.9469 139.726H29.211H22.4956V153.156H31.9469C35.6777 153.156 38.6623 150.172 38.6623 146.441Z" stroke="black" stroke-width="3" stroke-miterlimit="10"/>
<path d="M35.9264 133.01C35.9264 129.28 32.9418 126.295 29.211 126.295H22.4956V139.726H29.211C32.9418 139.726 35.9264 136.741 35.9264 133.01Z" stroke="black" stroke-width="3" stroke-miterlimit="10"/>
<path d="M3.71729 166.587H57.4404V112.864H3.71729V166.587ZM22.4955 139.726V126.295H29.2109C32.9416 126.295 35.9263 129.28 35.9263 133.01C35.9263 136.741 32.9416 139.726 29.2109 139.726H31.9468C35.6775 139.726 38.6622 142.71 38.6622 146.441C38.6622 150.172 35.6775 153.157 31.9468 153.157H22.4955V139.726Z" stroke="black" stroke-width="3" stroke-miterlimit="10"/>
<path d="M103.08 145.073C103.08 149.55 99.4737 153.157 94.9968 153.157C90.5199 153.157 86.9135 149.55 86.9135 145.073V134.378C86.9135 129.901 90.5199 126.295 94.9968 126.295C99.4737 126.295 103.08 129.901 103.08 134.378M68.1353 112.864V166.587H121.858V112.864H68.1353Z" stroke="black" stroke-width="3" stroke-miterlimit="10"/>
<path d="M65.5236 61.877H60.0518L54.9531 80.6552H70.6224L65.5236 61.877Z" stroke="black" stroke-width="3" stroke-miterlimit="10"/>
<path d="M55.0776 80.6553L52.0929 91.3501L54.9532 80.6553H70.6224M55.0776 80.6553H54.8288M55.0776 80.6553L60.1763 61.8771H65.5237L70.6224 80.6553M70.6224 80.6553H70.8711M70.6224 80.6553L73.607 91.3501M89.6493 48.4463H35.9263V102.169H89.6493V48.4463Z" stroke="black" stroke-width="3" stroke-miterlimit="10"/>
</g>
<path d="M119.619 63.7877C121.185 61.5529 122.75 59.3181 124.328 57.1673C133.819 44.4301 143.311 31.693 152.814 19.0398C153.412 18.2752 154.023 17.5946 154.633 16.914C155.66 17.4338 156.674 17.8697 157.7 18.3895C158.352 18.7878 159.113 19.1147 159.765 19.5131C159.167 20.2777 158.582 21.1262 157.984 21.8908C156.298 24.1131 154.6 26.2515 152.914 28.4738C151.814 29.8475 150.847 31.3177 149.867 32.704C147.596 35.7749 145.325 38.8457 143.041 41.8326C140.471 45.2857 137.901 48.7389 135.331 52.192C133.741 54.2589 132.163 56.4098 130.693 58.4891C129.593 59.8629 128.625 61.3331 127.525 62.7069C126.94 63.5554 126.354 64.404 125.781 65.3365C124.913 65.081 123.937 64.897 123.068 64.6416C121.946 64.2772 120.779 64.404 119.619 63.7877Z" fill="#45AAB8"/>
<path d="M170.486 24.5936C165.442 31.3445 160.41 38.1793 155.257 45.0016C149.137 53.2942 143.017 61.5867 136.897 69.8793C136.814 70.1186 136.598 70.2615 136.382 70.4045C134.969 69.6792 133.486 69.2773 132.015 68.9593C131.882 68.8629 131.882 68.8629 131.749 68.7664C131.375 68.6449 130.881 68.511 130.507 68.3895C130.723 68.2466 130.831 68.1751 131.046 68.0322C131.931 66.8014 132.815 65.5705 133.712 64.4236C135.385 62.1174 137.191 59.9076 138.865 57.6013C140.633 55.1396 142.415 52.7619 144.183 50.3002C145.367 48.6871 146.67 47.0865 147.854 45.4733C150.042 42.6418 152.097 39.7139 154.165 36.8699C156.054 34.4208 157.931 31.8876 159.82 29.4384C161.314 27.527 162.689 25.603 164.05 23.5951C164.457 23.1413 164.731 22.5911 165.005 22.0409C165.886 22.3803 166.78 22.8037 167.661 23.1431C168.554 23.5664 169.581 24.0863 170.486 24.5936Z" fill="#047B8E"/>
<path d="M176.141 17.162C176.046 17.3174 176.046 17.3174 175.938 17.3889C174.754 19.002 173.438 20.5187 172.255 22.1318C171.361 21.7084 170.335 21.1886 169.442 20.7652C168.548 20.3419 167.775 19.931 166.869 19.4237C166.977 19.3522 167.218 19.3772 167.206 19.2933C168.497 17.6087 169.668 15.9116 170.839 14.2145C172.239 14.8558 173.506 15.4006 174.907 16.0419C175.426 16.3438 175.73 16.7886 176.141 17.162Z" fill="#055868"/>
<path d="M156.414 14.5364C156.51 14.381 156.485 14.2131 156.701 14.0702C157.884 12.457 159.175 10.7724 160.359 9.15931C160.866 9.37724 161.373 9.59518 161.747 9.71665C162.013 9.90958 162.158 10.09 162.411 10.199C163.438 10.7188 164.452 11.1547 165.478 11.6745C164.702 12.8339 163.913 13.9093 163.137 15.0687C162.647 15.7618 162.385 16.396 161.895 17.0891C161.002 16.6658 160.121 16.3264 159.228 15.903C158.201 15.3832 157.308 14.9598 156.414 14.5364Z" fill="#388691"/>
<path d="M132.015 68.9592C133.486 69.2771 134.982 69.763 136.382 70.4043C136.166 70.5472 135.963 70.7741 135.747 70.917C132.291 73.2036 128.823 75.4063 125.235 77.5965C123.831 78.5254 122.173 79.3454 120.77 80.2744C120.637 80.1779 120.624 80.0939 120.491 79.9975C120.923 79.7116 121.33 79.2579 121.654 79.0435C123.299 78.1396 124.279 76.7533 125.537 75.6439C126.903 74.4631 128.149 73.2698 129.395 72.0765C130.45 71.194 131.492 70.2275 132.426 69.3325C132.281 69.1521 132.148 69.0556 132.015 68.9592Z" fill="#E9C293"/>
<path d="M119.619 63.7878C120.779 64.4041 121.946 64.2773 123.176 64.5702C122.819 65.3598 122.475 66.2334 122.118 67.023C121.487 68.3628 120.964 69.6311 120.333 70.9709C119.702 72.3107 119.204 73.747 118.706 75.1833C118.291 76.3802 117.877 77.5771 117.474 78.8579C117.233 78.8329 117.1 78.7365 116.859 78.7115C116.95 77.7289 117.041 76.7464 117.253 75.7764C117.978 71.8838 118.836 68.0877 119.561 64.1951C119.669 64.1237 119.644 63.9558 119.619 63.7878Z" fill="#FCE2C0"/>
<path d="M116.86 78.7113C117.101 78.7363 117.234 78.8327 117.475 78.8578C117.608 78.9542 117.741 79.0507 117.874 79.1471C118.368 79.2811 118.983 79.4275 119.49 79.6454C119.864 79.7669 120.118 79.8759 120.492 79.9973C120.625 80.0938 120.637 80.1777 120.77 80.2742C120.675 80.4295 120.579 80.5849 120.471 80.6564C119.499 81.2993 118.515 81.8583 117.543 82.5013C117.327 82.6442 116.845 82.5941 116.483 82.5566C116.363 82.5441 116.072 82.1833 116.047 82.0154C116.366 80.9742 116.673 79.849 116.86 78.7113Z" fill="#454444"/>
<path d="M169.442 20.7656C170.336 21.1889 171.362 21.7087 172.256 22.132C171.67 22.9804 171.072 23.7448 170.487 24.5931C169.581 24.0859 168.567 23.6501 167.66 23.1428C168.246 22.2944 168.844 21.53 169.442 20.7656Z" fill="#BBBDBE"/>
<path d="M156.415 14.5366C157.308 14.9599 158.335 15.4797 159.228 15.903C158.763 16.7639 158.165 17.5283 157.7 18.3891C156.674 17.8694 155.66 17.4336 154.633 16.9138C155.219 16.0654 155.817 15.301 156.415 14.5366Z" fill="#E4E6E6"/>
<path d="M165.345 11.578C164.319 11.0581 163.305 10.6223 162.278 10.1024C162.025 9.99347 161.879 9.81305 161.613 9.62012C162.228 9.76659 162.843 9.91307 163.471 10.1435C167.983 11.7691 171.981 13.9199 175.68 16.4529C176.066 16.6584 176.465 16.9477 175.9 17.1371C175.489 16.7638 175.198 16.4029 174.799 16.1135C173.519 15.4847 172.131 14.9274 170.731 14.2861C169.052 13.3679 167.265 12.5212 165.345 11.578Z" fill="#104D58"/>
<path d="M175.938 17.3896C175.926 17.3054 176.046 17.3179 176.034 17.2337C176.034 17.2337 175.926 17.3054 175.938 17.3896Z" fill="#104D58"/>
<path d="M164.993 21.9569C164.719 22.5071 164.432 22.9734 164.038 23.5111C162.663 25.4351 161.181 27.4305 159.807 29.3545C157.918 31.8036 156.041 34.3368 154.152 36.786C151.964 39.6174 149.909 42.5454 147.841 45.3893C146.658 47.0025 145.354 48.6031 144.171 50.2162C142.402 52.6779 140.633 55.1396 138.852 57.5173C137.179 59.8236 135.385 62.1173 133.699 64.3397C132.815 65.5705 131.931 66.8013 131.034 67.9482C130.938 68.1036 130.722 68.2465 130.494 68.3055C130.361 68.209 130.12 68.184 129.987 68.0876C129.355 67.03 127.859 66.5441 126.687 65.8439C126.675 65.7599 126.675 65.7599 126.554 65.7474C126.288 65.5545 126.022 65.3616 125.877 65.1811C126.462 64.3326 127.035 63.4001 127.62 62.5515C128.588 61.0813 129.688 59.7076 130.788 58.3338C132.378 56.2669 133.956 54.1161 135.426 52.0367C137.996 48.5835 140.566 45.1304 143.136 41.6773C145.407 38.6064 147.678 35.5356 149.962 32.5487C151.062 31.1749 152.03 29.7047 153.01 28.3184C154.695 26.0961 156.393 23.9578 158.079 21.7355C158.677 20.9709 159.262 20.1224 159.86 19.3578C160.754 19.7811 161.768 20.217 162.661 20.6404C163.447 21.1352 164.22 21.5461 164.993 21.9569Z" fill="#1A93A5"/>
<path d="M125.889 65.2652C126.155 65.4582 126.421 65.6511 126.567 65.8315C126.268 66.2138 126.077 66.5246 125.778 66.9069C125.326 67.8519 124.994 68.8095 124.408 69.658C123.644 70.9014 122.868 72.0607 122.092 73.2201C121.805 73.6864 121.519 74.1526 121.232 74.6189C120.933 75.0012 120.634 75.3835 120.335 75.7658C120.157 76.1606 120.112 76.6518 119.813 77.0341C119.215 77.7987 118.484 78.4668 117.886 79.2314C117.753 79.1349 117.62 79.0385 117.487 78.942C117.902 77.7451 118.304 76.4643 118.719 75.2674C119.217 73.8311 119.848 72.4913 120.346 71.055C120.856 69.7027 121.499 68.4469 122.13 67.1071C122.487 66.3175 122.832 65.4439 123.189 64.6543C124.045 64.8258 124.913 65.0812 125.889 65.2652Z" fill="#FDD5A5"/>
<path d="M162.554 20.7113C161.66 20.288 160.646 19.8521 159.753 19.4288C159.1 19.0305 158.34 18.7037 157.687 18.3054C158.152 17.4445 158.75 16.6801 159.215 15.8192C160.109 16.2425 160.99 16.5819 161.883 17.0052C162.656 17.416 163.55 17.8393 164.323 18.2501C163.737 19.0985 163.139 19.8629 162.554 20.7113Z" fill="#DBDDDE"/>
<path d="M129.999 68.1713C130.132 68.2678 130.373 68.2928 130.506 68.3893C130.88 68.5107 131.375 68.6447 131.749 68.7662C131.882 68.8626 131.882 68.8626 132.015 68.9591C132.148 69.0556 132.414 69.2485 132.559 69.4289C131.504 70.3114 130.449 71.1939 129.528 72.1729C128.282 73.3662 127.048 74.6435 125.67 75.7404C124.291 76.8372 123.432 78.236 121.787 79.1399C121.342 79.3418 121.056 79.8081 120.624 80.0939C120.25 79.9724 119.996 79.8634 119.622 79.742C120.843 78.3807 122.077 77.1034 123.297 75.7422C124.315 74.6078 125.32 73.3895 126.204 72.1586C127.329 70.9528 128.322 69.6505 129.447 68.4447C129.542 68.2892 129.771 68.2303 129.999 68.1713Z" fill="#F1C793"/>
<path d="M162.554 20.7112C163.152 19.9467 163.737 19.0984 164.335 18.334C165.216 18.6733 165.989 19.0842 166.87 19.4235C167.764 19.8468 168.537 20.2576 169.443 20.7649C168.845 21.5293 168.259 22.3777 167.661 23.1421C166.78 22.8027 165.887 22.3794 165.006 22.04C164.22 21.5453 163.447 21.1345 162.554 20.7112Z" fill="#CFD1D2"/>
<path d="M132.015 68.96C131.882 68.8633 131.882 68.8633 131.749 68.7666C131.762 68.8508 131.882 68.8633 132.015 68.96Z" fill="#E9C293"/>
<path d="M166.869 19.4239C165.988 19.0845 165.216 18.6737 164.335 18.3342C163.562 17.9234 162.668 17.5 161.895 17.0892C162.265 16.3835 162.634 15.6779 163.137 15.0687C163.913 13.9093 164.702 12.8339 165.478 11.6745C167.277 12.6052 169.185 13.4645 170.984 14.3952C169.813 16.0922 168.522 17.7768 167.351 19.4739C167.231 19.4614 166.99 19.4364 166.869 19.4239Z" fill="#14707F"/>
<path d="M129.999 68.1717C129.771 68.2306 129.542 68.2896 129.434 68.361C128.309 69.5669 127.184 70.7727 126.191 72.075C125.174 73.2094 124.29 74.4402 123.285 75.6585C122.064 77.0198 120.831 78.2971 119.61 79.6583C119.116 79.5244 118.501 79.3779 117.994 79.16C118.592 78.3954 119.322 77.7272 119.92 76.9627C120.219 76.5804 120.265 76.0891 120.443 75.6943C120.622 75.2995 121.041 74.9297 121.34 74.5474C121.627 74.0812 121.913 73.6149 122.199 73.1487C122.976 71.9893 123.86 70.7584 124.516 69.5866C125.101 68.738 125.433 67.7805 125.886 66.8355C126.064 66.4407 126.376 66.1424 126.675 65.7601L126.808 65.8565C127.884 66.7122 129.367 67.1141 129.999 68.1717Z" fill="#FCD19C"/>
<path d="M126.7 65.929L126.567 65.8315C126.687 65.8441 126.7 65.929 126.7 65.929Z" fill="#FDD5A5"/>
<defs>
<clipPath id="clip0_2519_384">
<rect width="123.328" height="124.359" fill="white" transform="translate(0.608398 45.3374)"/>
</clipPath>
</defs>
</svg>
