<svg width="125" height="116" viewBox="0 0 125 116" fill="none" xmlns="http://www.w3.org/2000/svg">
<path d="M102.911 48.8033C98.4314 41.2513 91.5194 35.2353 83.5834 31.6513C63.6154 22.5633 39.0394 28.7073 27.0074 49.3153C22.6554 56.8673 20.3514 65.8273 20.8634 74.6593C21.5034 83.3633 24.9594 91.6833 30.3354 98.5953C35.7114 105.379 43.0074 110.755 51.3274 113.443C59.6474 116.131 68.7354 116.131 77.0554 113.699C85.3754 111.267 93.1834 106.403 98.8154 99.7473C104.703 92.8353 108.031 84.1313 108.671 75.0433C109.567 65.9553 107.519 56.7393 102.911 48.8033Z" fill="#FF986D"/>
<path d="M124.287 63.2672C123.263 60.5792 120.319 59.9392 117.759 59.8112C114.431 59.6832 111.231 59.8112 107.903 60.1952C107.775 60.1952 107.647 60.1952 107.647 60.1952C107.647 60.3232 107.647 60.5792 107.647 60.7072C107.647 60.8352 107.775 60.9632 107.775 61.0912C107.775 61.2192 107.903 61.4752 107.903 61.6032C109.055 61.4752 110.207 61.4752 111.359 61.3472C113.791 61.2192 116.479 61.2192 118.911 61.6032C119.807 61.7312 120.959 61.9872 121.599 62.6272C122.239 63.2672 122.495 64.0352 122.495 64.9312C122.495 66.9792 121.215 68.6432 119.551 69.6672C117.631 70.9472 115.455 71.8432 113.279 72.7392C110.975 73.7632 108.671 74.6592 106.367 75.5552C101.759 77.3472 97.1514 78.8832 92.4154 80.2912C82.9434 83.1072 73.2154 85.0272 63.4874 86.3072C53.6314 87.4592 43.6474 87.8432 33.7914 87.4592C28.7994 87.2032 23.9354 86.8192 18.9434 86.1792C16.7674 85.9232 14.7194 85.6672 12.5434 85.0272C11.0074 84.6432 9.2154 83.8752 8.1914 82.5952C7.8074 82.0832 7.5514 81.5712 7.5514 81.0592C7.8074 79.5232 8.4474 78.2432 9.7274 77.0912C11.0074 75.6832 12.5434 74.6592 14.0794 73.5072C14.8474 72.9952 15.6154 72.3552 16.5114 71.7152C17.2794 71.0752 18.1754 70.6912 19.0714 70.1792C19.8394 69.7952 20.4794 69.4112 21.2474 69.0272C21.2474 68.6432 21.2474 68.1312 21.2474 67.7472C20.9914 67.7472 20.7354 67.8752 20.4794 67.8752C19.0714 68.1312 17.7914 68.6432 16.3834 69.1552C14.9754 69.6672 13.5674 70.1792 12.2874 71.0752C11.0074 71.8432 9.8554 72.8672 8.7034 73.7632C6.5274 75.5552 4.2234 78.1152 5.2474 81.1872C5.5034 82.0832 6.0154 83.2352 6.7834 84.0032C7.5514 84.7712 8.4474 85.4112 9.4714 85.7952C11.6474 86.8192 14.0794 87.2032 16.3834 87.5872C19.4554 87.9712 22.5274 88.3552 25.5994 88.7392C31.6154 89.2512 37.7594 89.5072 43.7754 89.5072C56.0634 89.3792 68.2234 88.0992 80.2554 85.5392C92.1594 82.9792 103.807 79.2672 114.943 74.5312C117.503 73.3792 120.447 72.3552 122.495 70.4352C124.159 68.5152 125.183 65.6992 124.287 63.2672Z" fill="black"/>
<path d="M72.8313 37.1554C72.8313 36.8994 72.7033 36.6433 72.5753 36.3873C72.4473 36.2593 72.3193 36.1314 72.1913 35.8754C71.9353 35.6194 71.5513 35.3633 71.1673 35.3633C70.9113 35.3633 70.7833 35.3634 70.5273 35.2354C70.1433 35.2354 69.7593 35.3634 69.3753 35.4914C69.2473 35.4914 69.1193 35.6194 68.9913 35.6194C68.7353 35.7474 68.4793 36.0034 68.3513 36.1314C68.0953 36.3874 67.9673 36.6434 67.9673 36.8994C67.8393 37.1554 67.8393 37.5394 67.9673 37.7954C67.9673 38.0514 68.0953 38.3073 68.2233 38.5633C68.3513 38.6913 68.4793 38.8194 68.6073 39.0754C68.8633 39.3314 69.2473 39.5873 69.6313 39.5873C69.8873 39.5873 70.0153 39.5874 70.2713 39.7154C70.6553 39.7154 71.0393 39.5874 71.4233 39.4594C71.5513 39.4594 71.6793 39.3314 71.8073 39.3314C72.0633 39.2034 72.3193 38.9474 72.4473 38.8194C72.7033 38.5634 72.8313 38.3074 72.8313 38.0514C72.8313 37.6674 72.8313 37.4114 72.8313 37.1554Z" fill="#E6EAEC"/>
<path d="M60.2874 53.4111C57.4714 53.4111 57.4714 57.8911 60.2874 57.8911C63.2314 57.8911 63.2314 53.4111 60.2874 53.4111Z" fill="#E6EAEC"/>
<path d="M84.9914 49.3154C82.5594 49.3154 82.5594 53.0274 84.9914 53.0274C87.4234 53.1554 87.4234 49.3154 84.9914 49.3154Z" fill="#E6EAEC"/>
<path d="M85.1194 67.4915C84.9914 66.8515 84.6074 66.2115 84.0954 65.8275C83.5834 65.3155 83.0714 65.0595 82.4314 64.8035C81.7914 64.6755 81.0234 64.6755 80.3834 64.8035H80.2554C79.6154 64.9315 78.9754 65.3155 78.4634 65.8275C77.9514 66.3395 77.5674 66.8515 77.4394 67.6195C77.3114 68.3875 77.3114 69.0275 77.4394 69.7955C77.5674 70.4355 77.9514 71.0755 78.4634 71.5875C78.9754 72.0995 79.4874 72.4835 80.2554 72.6115C81.0234 72.7395 81.6634 72.7395 82.4314 72.6115C83.0714 72.4835 83.7114 72.0995 84.2234 71.5875C84.7354 71.0755 85.1194 70.5635 85.2474 69.7955V69.6675C85.2474 68.8995 85.2474 68.1315 85.1194 67.4915Z" fill="#E6EAEC"/>
<path d="M61.1833 74.0195C61.0553 73.6355 60.7993 73.2515 60.5433 72.9955C60.4153 72.8675 60.1593 72.7395 60.0313 72.6115C59.6473 72.3555 59.2633 72.2275 58.7513 72.2275C58.3673 72.2275 58.1113 72.2275 57.8553 72.4835C57.5993 72.6115 57.3433 72.7395 57.0873 72.9955C56.8313 73.2515 56.7033 73.5075 56.5753 73.7635C56.4473 74.0195 56.3193 74.4035 56.3193 74.6595C56.3193 74.9155 56.3193 75.0435 56.4473 75.2995C56.5753 75.6835 56.8313 76.0675 57.0873 76.3235C57.2153 76.4515 57.4713 76.5795 57.5993 76.7075C57.9833 76.9635 58.3673 77.0915 58.8793 77.0915C59.2633 77.0915 59.5193 77.0915 59.7753 76.8355C60.0313 76.7075 60.2873 76.5795 60.5433 76.3235C60.7993 76.0675 60.9273 75.8115 61.0553 75.5555C61.1833 75.2995 61.1833 75.0435 61.1833 74.6595C61.1833 74.5315 61.1833 74.2755 61.1833 74.0195Z" fill="#E6EAEC"/>
<path d="M92.2874 86.5635C85.7594 86.5635 85.7594 96.6755 92.2874 96.6755C98.8154 96.6755 98.8154 86.5635 92.2874 86.5635Z" fill="#E6EAEC"/>
<path d="M73.7274 93.7313C73.5994 93.3473 73.4714 93.0913 73.2154 92.8353C73.0874 92.7073 72.9594 92.5793 72.8314 92.4513C72.4474 92.3233 72.1914 92.1953 71.8074 92.1953C71.5514 92.1953 71.2954 92.1953 71.0394 92.3233C70.7834 92.4513 70.5274 92.5793 70.3994 92.7073C70.1434 92.8353 70.0154 93.0913 70.0154 93.3473C69.8874 93.6033 69.7594 93.8593 69.8874 94.1153C69.8874 94.2433 69.8874 94.4993 70.0154 94.6273C70.1434 95.0113 70.2714 95.2673 70.5274 95.5233C70.6554 95.6513 70.7834 95.7793 70.9114 95.9073C71.2954 96.0353 71.5514 96.1633 71.9354 96.1633C72.1914 96.1633 72.4474 96.1633 72.7034 96.0353C72.9594 95.9073 73.2154 95.7793 73.3434 95.6513C73.5994 95.5233 73.7274 95.2673 73.7274 95.0113C73.8554 94.7553 73.9834 94.4993 73.8554 94.2433C73.8554 93.9873 73.8554 93.8593 73.7274 93.7313Z" fill="#E6EAEC"/>
<path d="M100.863 65.9552C100.735 65.4432 100.479 65.0592 100.095 64.6752C99.9674 64.5472 99.7114 64.4192 99.5834 64.2912C99.1994 64.0352 98.6874 63.9072 98.1754 63.9072C97.7914 63.9072 97.4074 64.0352 97.1514 64.1632C96.7674 64.2912 96.5114 64.4192 96.2554 64.8032C95.9994 65.0592 95.7434 65.3152 95.6154 65.6992C95.4874 66.0832 95.3594 66.3392 95.3594 66.7232C95.3594 66.9792 95.4874 67.2352 95.4874 67.4912C95.6154 68.0032 95.8714 68.3872 96.2554 68.7712C96.3834 68.8992 96.6394 69.0272 96.7674 69.1552C97.1514 69.4112 97.6634 69.5392 98.1754 69.5392C98.5594 69.5392 98.9434 69.4112 99.1994 69.2832C99.5834 69.1552 99.8394 69.0272 100.095 68.6432C100.351 68.3872 100.607 68.1312 100.735 67.7472C100.863 67.3632 100.863 66.9792 100.863 66.5952C100.863 66.3392 100.863 66.2112 100.863 65.9552Z" fill="#E6EAEC"/>
<path d="M48.1274 51.4912C46.2074 51.4912 46.2074 54.4352 48.1274 54.4352C50.0474 54.4352 50.0474 51.4912 48.1274 51.4912Z" fill="#E6EAEC"/>
<path d="M72.8314 49.4435C72.7034 49.1875 72.5754 48.9315 72.4474 48.8035C72.3194 48.6755 72.1914 48.6755 72.1914 48.5475C71.9354 48.4195 71.6794 48.2915 71.4234 48.2915C71.1674 48.2915 71.0394 48.2915 70.7834 48.4195C70.5274 48.4195 70.3994 48.5475 70.2714 48.8035C70.1434 48.9315 70.0154 49.0595 69.8874 49.3155C69.7594 49.4435 69.7594 49.6995 69.7594 49.9555C69.7594 50.0835 69.7594 50.2115 69.7594 50.3395C69.8874 50.5955 70.0154 50.8515 70.1434 50.9795L70.3994 51.2355C70.6554 51.3635 70.9114 51.4915 71.1674 51.4915C71.4234 51.4915 71.5514 51.4915 71.8074 51.3635C72.0634 51.3635 72.1914 51.2355 72.3194 50.9795C72.4474 50.8515 72.5754 50.7235 72.7034 50.4675C72.8314 50.3395 72.8314 50.0835 72.8314 49.8275C72.8314 49.6995 72.8314 49.5715 72.8314 49.4435Z" fill="#E6EAEC"/>
<path d="M73.0874 75.2993C70.7834 75.2993 70.7834 78.7553 73.0874 78.7553C75.3914 78.8833 75.3914 75.2993 73.0874 75.2993Z" fill="#E6EAEC"/>
<path d="M53.7593 99.3636C53.5033 98.4676 52.9913 97.5716 52.3513 96.9316C51.9673 96.6756 51.5833 96.2916 51.1993 96.0356C50.3033 95.5236 49.4073 95.2676 48.3833 95.2676C47.6153 95.2676 46.8473 95.3956 46.2073 95.7796C45.5673 96.0356 44.9273 96.4196 44.4153 96.9316C43.9033 97.4436 43.5193 98.0836 43.2633 98.7236C42.8793 99.3636 42.7513 100.132 42.7513 100.9C42.8793 101.412 42.8793 101.924 43.0073 102.436C43.2633 103.332 43.7753 104.228 44.4153 104.868C44.7993 105.124 45.1833 105.508 45.5673 105.764C46.4633 106.276 47.3593 106.532 48.3833 106.532C49.1513 106.532 49.9193 106.404 50.5593 106.02C51.1993 105.764 51.8393 105.38 52.3513 104.868C52.8633 104.356 53.2473 103.716 53.5033 103.076C53.8873 102.436 54.0153 101.668 54.0153 100.9C53.8873 100.388 53.7593 99.8756 53.7593 99.3636Z" fill="#E6EAEC"/>
<path d="M13.4394 50.5955L8.70337 50.0835L5.63137 53.6675L4.73537 49.0595L0.255371 47.2675L4.35137 44.8355L4.73537 40.2275L8.31937 43.2995L12.9274 42.2755L11.0074 46.6275L13.4394 50.5955Z" fill="black"/>
<path d="M98.0473 18.8514L93.9513 13.8594L87.6793 14.4994L91.0073 9.12336L88.4473 3.23536L94.7193 4.77136L99.4553 0.547363L99.8393 6.94736L105.343 10.1474L99.4553 12.5794L98.0473 18.8514Z" fill="black"/>
<path d="M123.903 101.667L119.935 101.027L117.247 103.843L116.607 99.8752L113.023 98.2112L116.607 96.4192L117.119 92.4512L119.935 95.2672L123.903 94.6272L122.111 98.0832L123.903 101.667Z" fill="black"/>
</svg>
