<svg width="20" height="20" viewBox="0 0 20 20" fill="none" xmlns="http://www.w3.org/2000/svg">
<path d="M19.9999 14.9199V17.9199C20.0011 18.1984 19.944 18.474 19.8325 18.7292C19.7209 18.9844 19.5572 19.2134 19.352 19.4017C19.1468 19.59 18.9045 19.7333 18.6407 19.8226C18.3769 19.9118 18.0973 19.9449 17.8199 19.9199C14.7428 19.5855 11.7869 18.534 9.18994 16.8499C6.77376 15.3145 4.72527 13.266 3.18993 10.8499C1.49991 8.24106 0.448176 5.27085 0.119933 2.17985C0.0949436 1.90332 0.127808 1.62461 0.216434 1.36148C0.305059 1.09834 0.447504 0.856542 0.634699 0.651474C0.821895 0.446406 1.04974 0.282562 1.30372 0.170375C1.55771 0.0581874 1.83227 0.000114291 2.10993 -0.000147188H5.10994C5.59524 -0.00492363 6.06573 0.166931 6.4337 0.483385C6.80167 0.799839 7.04201 1.2393 7.10994 1.71985C7.23656 2.67992 7.47139 3.62258 7.80994 4.52985C7.94448 4.88778 7.9736 5.27677 7.89384 5.65073C7.81409 6.0247 7.6288 6.36796 7.35994 6.63985L6.08994 7.90985C7.51349 10.4134 9.58639 12.4863 12.0899 13.9099L13.3599 12.6399C13.6318 12.371 13.9751 12.1857 14.3491 12.1059C14.723 12.0262 15.112 12.0553 15.4699 12.1899C16.3772 12.5284 17.3199 12.7632 18.2799 12.8899C18.7657 12.9584 19.2093 13.2031 19.5265 13.5773C19.8436 13.9516 20.0121 14.4294 19.9999 14.9199Z" fill="#15B2F5"/>
</svg>
