<svg width="103" height="140" viewBox="0 0 103 140" fill="none" xmlns="http://www.w3.org/2000/svg">
<path d="M57.1715 116.777C62.9494 115.706 68.9766 113.54 75.0029 109.827C95.2733 97.2579 102.767 75.1439 102.767 62.5519C102.767 46.7939 102.767 42.2949 92.0909 24.2749C89.0213 19.0859 83.2425 11.2069 73.1301 5.13691C70.0189 3.25884 66.7273 1.73462 63.3107 0.589907C62.9359 0.460089 62.5401 0.411647 62.1471 0.447501C61.7541 0.483355 61.3721 0.602762 61.024 0.798525C60.6759 0.994288 60.3691 1.26235 60.1219 1.58655C59.8747 1.91075 59.6924 2.28438 59.5859 2.68491L59.564 2.80491C59.18 4.25591 59.8343 5.77991 61.0756 6.42191C60.6697 7.32691 60.1501 8.49291 59.5413 9.84991C60.6697 10.2309 61.5497 10.5639 62.1595 10.7779C62.9276 11.0639 63.8977 11.4449 64.9806 11.8979C65.3191 10.6359 65.6349 9.37391 65.9744 8.11291C71.4169 10.267 76.4479 13.4354 80.8272 17.4669C83.1742 19.6339 90.1725 26.5129 94.2131 37.7959C99.8563 53.6019 98.1399 73.8109 86.9218 89.1649C76.6283 103.233 62.4079 107.66 54.4623 109.136C52.772 109.449 51.0699 109.688 49.3606 109.85C47.6452 110.017 45.9753 110.112 44.3499 110.136C39.6492 110.175 34.9625 109.591 30.3998 108.398C31.2571 106.518 32.1153 104.637 32.9734 102.733C30.8917 102.164 28.86 101.407 26.9007 100.472C25.9524 102.685 25.0496 104.685 24.237 106.47C23.4958 106.308 22.7238 106.455 22.0838 106.882C21.4438 107.308 20.9857 107.979 20.8061 108.755L20.7834 108.874C20.4448 110.35 21.1446 111.874 22.477 112.469C26.3592 114.207 34.7107 117.325 45.0715 117.73C45.5457 124.299 45.5684 131.084 43.7174 131.536C40.0609 132.417 28.3459 129.203 25.4337 134.464C24.8695 135.487 24.7339 136.273 24.9823 136.868C26.0653 139.701 33.6951 139.01 41.9119 138.558C64.3035 137.368 75.1613 139.248 76.1323 135.321C76.3798 134.273 75.8156 133.297 75.68 133.083C72.9262 128.394 60.5114 134.607 57.2607 129.917C56.5163 128.846 56.7647 127.941 56.9677 123.633C57.1033 121.062 57.1488 118.801 57.1715 116.777Z" fill="#FF5252"/>
<path d="M92.0463 58.22C90.7823 73.955 82.2497 83.905 79.2474 87.309C68.3223 99.687 55.1176 102.376 51.4829 103.067C47.9173 103.733 41.9119 104.804 34.3949 103.067C33.9208 102.948 33.4248 102.829 32.9735 102.71C30.8918 102.141 28.8604 101.384 26.9016 100.448C18.3691 96.402 13.1327 90.046 10.9204 87.308C9.89221 86.037 8.92776 84.7102 8.03096 83.333C16.6081 75.454 6.9926 72.931 6.72234 66.218C6.42837 59.172 8.41406 50.341 10.7165 41.7C11.936 37.106 9.5207 33.083 6.96984 30.298C8.95911 26.7769 11.3467 23.5238 14.08 20.61C21.0328 24.133 29.6782 25.918 37.8723 20.491C43.6729 16.659 46.3138 11.969 47.2393 7.375C49.0221 7.494 50.7157 7.685 52.2728 7.946C55.2304 8.446 57.713 9.16 59.565 9.779C59.8798 9.874 60.151 9.969 60.4223 10.065C60.3767 11.375 60.1283 12.874 59.4285 14.349C57.713 18.087 54.7108 18.539 54.8009 20.467C54.9365 23.371 61.821 25.227 65.1845 25.99C67.6898 26.561 70.309 26.442 73.9883 25.894C77.6904 25.347 79.8344 24.324 81.0985 23.371C81.9339 24.323 82.7466 25.371 83.5592 26.466C84.8946 28.3139 86.0873 30.2719 87.1257 32.321C83.3554 34.226 79.2474 35.511 75.4998 35.059C64.3955 33.726 61.618 30.727 58.8415 35.154C56.0649 39.582 58.6385 39.082 61.7536 43.962C64.846 48.842 83.0851 57.506 67.0355 54.388C50.9869 51.269 52.1381 45.247 43.6956 49.222C35.2531 53.222 33.8762 46.77 31.0997 54.388C28.3686 61.886 35.6827 73.812 39.8807 73.264C41.213 73.098 41.9119 71.764 44.6439 71.384C46.7424 71.098 47.6461 71.717 47.9164 71.907C48.1421 72.074 48.7746 72.597 49.2933 74.169C49.9931 76.287 49.7902 78.168 49.6773 79.12C48.8874 85.952 48.2104 86.237 48.7063 87.594C49.6773 90.284 53.4923 92.117 56.5391 91.522C59.8798 90.879 59.767 87.785 63.7848 85.547C68.8638 82.691 72.4085 85.785 74.5525 83.286C77.2162 80.144 71.9561 75.097 74.5753 68.694C76.6065 63.719 82.2952 61.005 84.0779 60.244C85.2974 59.72 86.3804 59.648 88.0057 59.172C88.7956 58.958 90.2626 58.625 92.0463 58.22Z" fill="#3700ED"/>
<path d="M47.2394 7.3999C46.3139 11.9939 43.6729 16.6829 37.8714 20.5159C29.6782 25.9429 21.0319 24.1579 14.0791 20.6349C17.894 16.6119 22.5216 13.1599 28.0074 10.7559C34.9374 7.7089 41.5971 7.0659 47.2394 7.3999ZM81.0748 23.4179C79.8335 24.3699 77.6667 25.3699 73.9646 25.9409C70.2853 26.4879 67.6671 26.6069 65.1618 26.0359C61.7982 25.2739 54.9138 23.4179 54.7782 20.5139C54.6881 18.5859 57.6894 18.1339 59.4057 14.3959C60.0828 12.9199 60.354 11.4199 60.3986 10.1109C61.1212 10.3729 61.7072 10.5869 62.1595 10.7539C62.9267 11.0399 63.8977 11.4209 64.9807 11.8729C69.2242 13.6819 75.4999 16.9899 81.0748 23.4179ZM92.0682 58.0279V58.2189C90.2617 58.6229 88.7947 58.9559 87.9593 59.1949C86.3339 59.6469 85.2738 59.7419 84.0315 60.2649C82.2488 61.0039 76.5601 63.7169 74.5289 68.7159C71.9107 75.1189 77.1698 80.1659 74.5061 83.3079C72.362 85.8309 68.8183 82.7369 63.7394 85.5689C59.7215 87.8069 59.8344 90.9009 56.4936 91.5439C53.4686 92.1389 49.6309 90.3059 48.6608 87.6169C48.1867 86.2829 48.8638 85.9739 49.6309 79.1419C49.7447 78.1899 49.9249 76.3099 49.2478 74.1919C48.7282 72.6199 48.1194 72.0959 47.87 71.9299C47.5997 71.7149 46.697 71.1199 44.5975 71.4059C41.8882 71.7859 41.1666 73.1199 39.8343 73.2859C35.6135 73.8339 28.3222 61.9079 31.0532 54.4099C33.8298 46.7929 35.2067 53.2439 43.6492 49.2449C52.0917 45.2689 50.9405 51.2919 66.9891 54.4099C83.0387 57.5279 64.7995 48.8639 61.7072 43.9839C58.6158 39.1039 56.0195 39.6039 58.796 35.1759C61.5716 30.7489 64.3482 33.7479 75.4544 35.0809C79.201 35.5329 83.3099 34.2479 87.0793 32.3439C92.8126 43.6509 92.3384 54.6239 92.0682 58.0279ZM8.05282 83.3339C4.66747 78.1439 3.04118 73.5259 2.40963 71.5509C1.91273 70.0029 -0.728219 61.5289 0.264625 51.2929C0.918936 44.6279 3.10945 37.1779 6.99169 30.3229C9.54256 33.0829 11.9578 37.1299 10.7383 41.7239C8.43592 50.3649 6.45023 59.1959 6.74325 66.2419C7.01445 72.9319 16.6072 75.4539 8.05187 83.3339H8.05282ZM68.458 87.4269C67.9383 87.3559 66.3139 87.2839 63.1761 89.9979C61.4597 91.4739 58.6841 94.3059 59.1801 95.1399C59.3839 95.4729 60.061 95.4969 61.3478 95.1159C65.5231 93.8779 66.3585 91.6639 68.458 90.7119C70.3991 89.8079 70.512 88.9269 70.4446 88.5219C70.309 87.8559 69.1806 87.5219 68.458 87.4269Z" fill="#4CCC4C"/>
</svg>
