<svg width="23" height="24" viewBox="0 0 23 24" fill="none" xmlns="http://www.w3.org/2000/svg">
<g clip-path="url(#clip0_91_1184)">
<path d="M23 12.4692C23 6.118 17.8512 0.969238 11.5 0.969238C5.14877 0.969238 0 6.118 0 12.4692C0 18.2092 4.20541 22.9669 9.70312 23.8295V15.7935H6.7832V12.4692H9.70312V9.93565C9.70312 7.05346 11.42 5.46143 14.0469 5.46143C15.3051 5.46143 16.6211 5.68604 16.6211 5.68604V8.51611H15.171C13.7424 8.51611 13.2969 9.4026 13.2969 10.3121V12.4692H16.4863L15.9765 15.7935H13.2969V23.8295C18.7946 22.9669 23 18.2093 23 12.4692Z" fill="#1877F2"/>
<path d="M15.9765 15.7935L16.4863 12.4692H13.2969V10.3121C13.2969 9.40251 13.7424 8.51611 15.171 8.51611H16.6211V5.68604C16.6211 5.68604 15.3051 5.46143 14.0468 5.46143C11.42 5.46143 9.70312 7.05346 9.70312 9.93564V12.4692H6.7832V15.7935H9.70312V23.8295C10.2975 23.9227 10.8983 23.9694 11.5 23.9692C12.1017 23.9694 12.7025 23.9227 13.2969 23.8295V15.7935H15.9765Z" fill="white"/>
</g>
<defs>
<clipPath id="clip0_91_1184">
<rect width="23" height="23" fill="white" transform="translate(0 0.969238)"/>
</clipPath>
</defs>
</svg>
