<svg width="22" height="23" viewBox="0 0 22 23" fill="none" xmlns="http://www.w3.org/2000/svg">
<path d="M16.8438 0.469238H5.15625C2.30853 0.469238 0 2.77777 0 5.62549V17.313C0 20.1607 2.30853 22.4692 5.15625 22.4692H16.8438C19.6915 22.4692 22 20.1607 22 17.313V5.62549C22 2.77777 19.6915 0.469238 16.8438 0.469238Z" fill="url(#paint0_radial_92_1208)"/>
<path d="M16.8438 0.469238H5.15625C2.30853 0.469238 0 2.77777 0 5.62549V17.313C0 20.1607 2.30853 22.4692 5.15625 22.4692H16.8438C19.6915 22.4692 22 20.1607 22 17.313V5.62549C22 2.77777 19.6915 0.469238 16.8438 0.469238Z" fill="url(#paint1_radial_92_1208)"/>
<path d="M11.0008 2.87549C8.66688 2.87549 8.37392 2.88571 7.45731 2.92739C6.54242 2.96933 5.91791 3.11414 5.37152 3.32666C4.80623 3.54614 4.32678 3.83979 3.84914 4.31761C3.37107 4.79533 3.07742 5.27478 2.85725 5.83982C2.64413 6.38638 2.49915 7.01114 2.45798 7.92561C2.41699 8.8423 2.40625 9.13535 2.40625 11.4693C2.40625 13.8033 2.41656 14.0953 2.45816 15.0119C2.50027 15.9268 2.64507 16.5513 2.85742 17.0977C3.07708 17.663 3.37073 18.1425 3.84854 18.6201C4.32609 19.0982 4.80554 19.3925 5.37041 19.612C5.91723 19.8245 6.54182 19.9693 7.45654 20.0113C8.37323 20.0529 8.66594 20.0632 10.9997 20.0632C13.3339 20.0632 13.6259 20.0529 14.5425 20.0113C15.4574 19.9693 16.0826 19.8245 16.6294 19.612C17.1945 19.3925 17.6732 19.0982 18.1507 18.6201C18.6288 18.1425 18.9223 17.663 19.1426 17.098C19.3538 16.5513 19.4989 15.9266 19.5418 15.0121C19.583 14.0955 19.5938 13.8033 19.5938 11.4693C19.5938 9.13535 19.583 8.84247 19.5418 7.92578C19.4989 7.01089 19.3538 6.38646 19.1426 5.84007C18.9223 5.27478 18.6288 4.79533 18.1507 4.31761C17.6727 3.83962 17.1946 3.54597 16.6289 3.32675C16.0811 3.11414 15.4562 2.96925 14.5413 2.92739C13.6246 2.88571 13.3328 2.87549 10.9981 2.87549H11.0008ZM10.2298 4.42417C10.4587 4.42382 10.714 4.42417 11.0008 4.42417C13.2954 4.42417 13.5673 4.43242 14.4734 4.47358C15.3113 4.51191 15.7661 4.6519 16.069 4.76955C16.4701 4.92527 16.756 5.1115 17.0566 5.41236C17.3574 5.71314 17.5435 5.99957 17.6997 6.40064C17.8173 6.70314 17.9575 7.15793 17.9957 7.99582C18.0368 8.90177 18.0458 9.17385 18.0458 11.4673C18.0458 13.7608 18.0368 14.033 17.9957 14.9389C17.9573 15.7768 17.8173 16.2316 17.6997 16.5341C17.544 16.9352 17.3574 17.2208 17.0566 17.5214C16.7558 17.8222 16.4703 18.0083 16.069 18.1641C15.7664 18.2823 15.3113 18.4219 14.4734 18.4603C13.5675 18.5014 13.2954 18.5104 11.0008 18.5104C8.70607 18.5104 8.43408 18.5014 7.52821 18.4603C6.69032 18.4216 6.23554 18.2816 5.93235 18.1639C5.53137 18.0081 5.24485 17.822 4.94407 17.5212C4.64329 17.2204 4.45715 16.9347 4.301 16.5334C4.18335 16.2309 4.04319 15.7761 4.00503 14.9382C3.96387 14.0322 3.95562 13.7602 3.95562 11.4652C3.95562 9.17032 3.96387 8.89962 4.00503 7.99367C4.04336 7.15578 4.18335 6.701 4.301 6.39807C4.4568 5.997 4.64329 5.71057 4.94416 5.40979C5.24494 5.109 5.53137 4.92278 5.93244 4.76671C6.23537 4.64855 6.69032 4.5089 7.52821 4.4704C8.32098 4.43457 8.62821 4.42382 10.2298 4.42202V4.42417ZM15.5881 5.85107C15.0188 5.85107 14.5569 6.31256 14.5569 6.88198C14.5569 7.45132 15.0188 7.91323 15.5881 7.91323C16.1575 7.91323 16.6194 7.45132 16.6194 6.88198C16.6194 6.31264 16.1575 5.85073 15.5881 5.85073V5.85107ZM11.0008 7.056C8.56359 7.056 6.58754 9.03205 6.58754 11.4693C6.58754 13.9066 8.56359 15.8817 11.0008 15.8817C13.438 15.8817 15.4134 13.9066 15.4134 11.4693C15.4134 9.03214 13.4379 7.056 11.0006 7.056H11.0008ZM11.0008 8.60468C12.5828 8.60468 13.8654 9.88713 13.8654 11.4693C13.8654 13.0513 12.5828 14.334 11.0008 14.334C9.41866 14.334 8.13622 13.0513 8.13622 11.4693C8.13622 9.88713 9.41866 8.60468 11.0008 8.60468Z" fill="white"/>
<defs>
<radialGradient id="paint0_radial_92_1208" cx="0" cy="0" r="1" gradientUnits="userSpaceOnUse" gradientTransform="translate(5.84375 24.1637) rotate(-90) scale(21.8036 20.2791)">
<stop stop-color="#FFDD55"/>
<stop offset="0.1" stop-color="#FFDD55"/>
<stop offset="0.5" stop-color="#FF543E"/>
<stop offset="1" stop-color="#C837AB"/>
</radialGradient>
<radialGradient id="paint1_radial_92_1208" cx="0" cy="0" r="1" gradientUnits="userSpaceOnUse" gradientTransform="translate(-3.68509 2.05401) rotate(78.681) scale(9.74634 40.1747)">
<stop stop-color="#3771C8"/>
<stop offset="0.128" stop-color="#3771C8"/>
<stop offset="1" stop-color="#6600FF" stop-opacity="0"/>
</radialGradient>
</defs>
</svg>
