<svg width="23" height="26" viewBox="0 0 23 26" fill="none" xmlns="http://www.w3.org/2000/svg">
<g clip-path="url(#clip0_92_1232)">
<path d="M16.3552 9.47111C17.9653 10.6215 19.9379 11.2984 22.0683 11.2984V7.20102C21.6651 7.20111 21.263 7.15904 20.8685 7.0755V10.3008C18.7383 10.3008 16.7659 9.62395 15.1554 8.47361V16.8353C15.1554 21.0183 11.7627 24.409 7.57782 24.409C6.01636 24.409 4.56498 23.9372 3.35938 23.128C4.73541 24.5343 6.65438 25.4066 8.77731 25.4066C12.9625 25.4066 16.3553 22.0159 16.3553 17.8327V9.47111H16.3552ZM17.8353 5.33731C17.0124 4.43878 16.472 3.27757 16.3552 1.99378V1.4668H15.2182C15.5044 3.09843 16.4807 4.4924 17.8353 5.33731ZM6.00627 19.9182C5.54652 19.3157 5.298 18.5786 5.29912 17.8208C5.29912 15.9077 6.85093 14.3565 8.7655 14.3565C9.12224 14.3563 9.47688 14.411 9.81696 14.5188V10.3297C9.41955 10.2753 9.01851 10.2521 8.61765 10.2607V13.5212C8.27742 13.4134 7.92258 13.3586 7.56567 13.359C5.65119 13.359 4.09946 14.91 4.09946 16.8233C4.09946 18.1763 4.87506 19.3476 6.00627 19.9182Z" fill="#FF004F"/>
<path d="M15.1554 8.47352C16.766 9.62387 18.7382 10.3007 20.8685 10.3007V7.07542C19.6794 6.82223 18.6267 6.20119 17.8352 5.33731C16.4805 4.49231 15.5044 3.09835 15.2182 1.4668H12.2317V17.8326C12.2249 19.7405 10.6757 21.2853 8.76531 21.2853C7.63962 21.2853 6.63945 20.749 6.00609 19.9181C4.87505 19.3476 4.09936 18.1762 4.09936 16.8234C4.09936 14.9102 5.65109 13.359 7.56557 13.359C7.93238 13.359 8.28591 13.4161 8.61755 13.5213V10.2608C4.50617 10.3457 1.19971 13.7033 1.19971 17.8327C1.19971 19.894 2.02307 21.7627 3.35945 23.1282C4.56505 23.9372 6.01635 24.4092 7.5779 24.4092C11.7628 24.4092 15.1555 21.0183 15.1555 16.8353L15.1554 8.47352Z" fill="black"/>
<path d="M20.8685 7.07527V6.20338C19.7962 6.205 18.7451 5.90486 17.8353 5.33726C18.6406 6.21847 19.7011 6.82616 20.8685 7.07545M15.2181 1.46665C15.1908 1.31076 15.1699 1.15382 15.1553 0.996221V0.469238H11.0317V16.8352C11.0252 18.7429 9.47604 20.2878 7.56552 20.2878C7.0239 20.2886 6.48969 20.162 6.00603 19.9182C6.6394 20.749 7.63957 21.2852 8.76526 21.2852C10.6756 21.2852 12.2249 19.7405 12.2316 17.8326V1.46674L15.2181 1.46665ZM8.61776 10.2606V9.33226C8.27318 9.28516 7.9258 9.26159 7.57802 9.26174C3.39267 9.26174 0 12.6526 0 16.8352C0 19.4575 1.33336 21.7685 3.35957 23.1279C2.02319 21.7626 1.19983 19.8938 1.19983 17.8325C1.19983 13.7032 4.50621 10.3455 8.61776 10.2606Z" fill="#00F2EA"/>
</g>
<defs>
<clipPath id="clip0_92_1232">
<rect width="22.069" height="25" fill="white" transform="translate(0 0.469238)"/>
</clipPath>
</defs>
</svg>
