<svg width="23" height="24" viewBox="0 0 23 24" fill="none" xmlns="http://www.w3.org/2000/svg">
<g clip-path="url(#clip0_92_1219)">
<path d="M17.6094 0.969238H5.39062C2.41347 0.969238 0 3.3827 0 6.35986V18.5786C0 21.5558 2.41347 23.9692 5.39062 23.9692H17.6094C20.5865 23.9692 23 21.5558 23 18.5786V6.35986C23 3.3827 20.5865 0.969238 17.6094 0.969238Z" fill="white"/>
<path d="M17.6094 0.969238H5.39062C2.41347 0.969238 0 3.3827 0 6.35986V18.5786C0 21.5558 2.41347 23.9692 5.39062 23.9692H17.6094C20.5865 23.9692 23 21.5558 23 18.5786V6.35986C23 3.3827 20.5865 0.969238 17.6094 0.969238Z" fill="#1D9BF0"/>
<path d="M17.9303 9.18194C17.9402 9.32452 17.9402 9.4671 17.9402 9.61103C17.9402 13.9951 14.6027 19.0514 8.49985 19.0514V19.0487C6.69697 19.0513 4.93144 18.5349 3.41406 17.5613C3.67623 17.5928 3.93965 17.6086 4.20379 17.6092C5.69807 17.6104 7.14937 17.1092 8.32447 16.1862C7.63212 16.1731 6.96116 15.944 6.40539 15.5309C5.84963 15.1178 5.43685 14.5413 5.22477 13.8821C5.72186 13.978 6.23431 13.9584 6.72265 13.825C5.17482 13.5122 4.06121 12.1523 4.06121 10.5728V10.5308C4.52264 10.7878 5.03905 10.9302 5.56699 10.946C4.10918 9.97167 3.65979 8.03221 4.54007 6.51583C5.37304 7.54085 6.41232 8.37919 7.5904 8.97638C8.76849 9.57357 10.059 9.91626 11.3782 9.98218C11.2466 9.41602 11.2661 8.82525 11.4345 8.26895C11.6029 7.71266 11.9145 7.21034 12.338 6.81222C13.6743 5.55603 15.776 5.62045 17.0322 6.95606C17.7752 6.80937 18.4878 6.53698 19.1391 6.15061C18.8915 6.91883 18.3731 7.57093 17.6806 7.98558C18.3383 7.90809 18.9806 7.73203 19.5859 7.46332C19.1407 8.13014 18.58 8.71207 17.9303 9.18194Z" fill="white"/>
</g>
<defs>
<clipPath id="clip0_92_1219">
<rect width="23" height="23" fill="white" transform="translate(0 0.969238)"/>
</clipPath>
</defs>
</svg>
