<svg width="77" height="79" viewBox="0 0 77 79" fill="none" xmlns="http://www.w3.org/2000/svg">
<path d="M26.6677 74.0001L3.66766 77.0001L0.167664 60.5001L17.6677 57.5001L26.6677 74.0001Z" fill="#9EA3B5"/>
<path d="M76.6677 72.5001L55.6677 75.0001L52.1677 58.5001L67.6677 56.0001L76.6677 72.5001Z" fill="#9EA3B5"/>
<path d="M27.1935 63.881L26.1676 64.0002L34.6676 79.0002L51.1676 78.0002L47.7005 61.6552C46.9375 62.3456 46.2018 62.9887 45.5052 63.5816C40.201 68.0953 32.5992 68.1951 27.1935 63.881Z" fill="#9EA3B5"/>
<path fill-rule="evenodd" clip-rule="evenodd" d="M42.2647 59.7737C49.9496 53.234 62.1677 40.6416 62.1677 26.6821C62.1677 19.7382 59.4284 13.0788 54.5525 8.16872C49.6765 3.25868 43.0633 0.500244 36.1677 0.500244C29.2721 0.500244 22.6589 3.25868 17.7829 8.16872C12.907 13.0788 10.1677 19.7382 10.1677 26.6821C10.1677 40.6416 22.3858 53.234 30.0707 59.7737C33.6268 62.8 38.7086 62.8 42.2647 59.7737ZM48.1677 26.5002C48.1677 33.1277 42.7951 38.5002 36.1677 38.5002C29.5403 38.5002 24.1677 33.1277 24.1677 26.5002C24.1677 19.8728 29.5403 14.5002 36.1677 14.5002C42.7951 14.5002 48.1677 19.8728 48.1677 26.5002Z" fill="#9EA3B5"/>
</svg>
